<svg width="1301" height="568" viewBox="0 0 1301 568" fill="none" xmlns="http://www.w3.org/2000/svg">
<path d="M1298.95 4.39297C1285.97 2.7703 1272.48 1.90332 1258.56 1.90332V1.90332C1214.28 1.90332 1171.24 15.8384 1132.53 37.3454L1106.69 51.6964V51.6964C1064.07 78.8878 1023.3 110.045 994.111 151.325C984.258 165.257 975.747 179.416 971.977 190.979C955.513 241.469 923.727 285.5 894.106 329.57C865.814 371.662 820.868 389.091 776.401 408.824C733.358 427.924 694.119 454.791 649.152 469.405C636.221 473.607 622.702 475.117 609 475.964C590.667 476.976 553.7 489.1 552.5 529.5C551 580 607 567.5 622.5 552.5V552.5C651.016 524.904 591.1 489.594 551.831 483.877V483.877C541.678 482.399 531.337 482.136 521.166 483.479C508.311 485.176 490.278 487.953 478.887 491.397C462.158 496.455 445.008 506.857 428.955 514.081C401.67 526.359 373.278 535.418 344.86 544.648C340.501 546.064 335.696 547.593 330.596 549.192C264.712 569.857 194.236 570.222 127.461 552.649V552.649C100.962 545.676 73.7935 541.524 46.4061 540.64C30.3342 540.121 13.1012 539.669 1.84131 539.669" stroke="black" stroke-width="3" stroke-linecap="round"/>
</svg>
