<svg width="135" height="294" viewBox="0 0 135 294" fill="none" xmlns="http://www.w3.org/2000/svg">
<path d="M4.34523 2.48828C6.45355 11.9757 9.28909 21.5612 13.0286 30.5231C16.6906 39.2992 20.2798 45.0219 25.9296 52.4796C38.8999 69.6005 57.7874 85.2292 77.7816 93.2914C80.1771 94.2573 83.6545 95.1762 87.1835 95.9659C95.7265 97.8773 105.73 95.9313 110.282 88.4535V88.4535C116.463 78.2986 119.788 63.9774 110.53 54.4644C108.853 52.7413 106.419 51.3629 103.9 50.2879C97.1566 47.4093 89.562 48.5796 82.7497 51.2922V51.2922C71.9503 55.5924 63.085 64.2833 60.9979 75.7185C60.4975 78.4603 60.1668 81.1388 60.1668 83.4296C60.1668 109.477 71.7067 133.452 93.1636 148.307C103.945 155.771 117.162 160.696 124.92 171.628C133.549 183.787 136.69 203.364 128.145 216.595C114.151 238.263 87.6629 226.066 67.1135 230.861C44.7008 236.09 39.4032 259.851 30.0232 277.13C27.2609 282.219 18.3941 287.178 12.6564 287.178C7.94849 287.178 5.84212 291.644 2.11237 291.644" stroke="black" stroke-width="3" stroke-linecap="round"/>
</svg>
