<svg width="376" height="338" viewBox="0 0 376 338" fill="none" xmlns="http://www.w3.org/2000/svg">
<path d="M165.623 158.793C164.553 156.297 99.7156 164.068 119.478 192.613C128.452 205.576 136.184 215.429 151.149 221.704C171.376 230.187 178.791 212.612 183.966 193.187C191.48 164.977 187.055 127.164 149.286 134.718C130.495 138.476 91.8632 157.079 109.16 180.862C123.018 199.917 136.435 206.784 160.607 207.374C208.549 208.543 223.556 155.364 213.2 114.942C205.01 82.9723 173.585 50.3228 138.681 69.0836C123.334 77.3327 138.672 97.0746 150.432 99.0345C215.06 109.806 175.222 4.368 121.484 22.9391C98.8148 30.7734 80.6338 66.9894 69.6076 85.1339C56.9686 105.932 27.8379 146.241 33.7811 173.41C36.9754 188.013 70.9007 193.054 80.4988 196.339C120.021 209.866 162.28 222.636 187.405 258.391C198.301 273.896 221.409 336.981 175.941 321.302C150.672 312.589 130.03 286.768 116.039 265.27C98.4796 238.288 98.2359 214.018 116.899 187.454C132.249 165.606 164.04 138.043 192.564 156.5C210.488 168.098 218.357 198.47 224.091 217.262C230.704 238.932 237.267 267.028 219.936 285.619C184.414 323.724 128.427 279.893 107.297 247.786C78.2231 203.609 105.069 130.497 151.579 108.349C206.775 82.0656 273.638 158.551 299.757 197.486C316.696 222.735 328.774 255.099 325.839 286.049C322.628 319.907 282.456 324.548 255.619 326.748C210.206 330.47 164.625 323.993 121.054 311.127C93.7388 303.062 54.9824 291.837 37.0771 266.989C26.9279 252.905 28.7544 233.77 29.052 217.405C29.4996 192.783 28.9455 165.397 41.5196 143.316C59.9524 110.946 96.6773 109.738 131.229 114.942C162.752 119.689 196.796 136.302 220.939 157.073C251.648 183.494 236.593 221.066 215.78 248.933C195.823 275.651 168.527 299.27 137.821 312.704C135.03 313.925 126.483 316.661 128.936 314.853C135.386 310.101 143.174 307.496 150.432 304.105C193.427 284.02 238.545 267.167 278.834 241.767C311.639 221.086 351.477 187.706 339.883 143.603C333.796 120.451 311.22 108.325 290.299 101.184C252.61 88.3202 210.931 84.3203 171.355 83.1276C158.147 82.7295 124.953 78.4503 115.179 92.5858C93.7196 123.619 130.604 166.755 152.868 183.155C200.672 218.369 274.465 227.152 297.464 159.223C313.89 110.709 291.848 49.0155 247.594 23.2257C186.697 -12.2623 116.915 26.6656 101.995 90.8661C86.2491 158.62 158.967 211.242 216.783 222.564C255.152 230.078 307.314 233.556 339.596 206.371C370.825 180.073 354.357 128.925 338.736 98.8912C302.104 28.4599 220.166 3.34828 145.846 2.01639C118.962 1.53459 103.97 11.7039 83.9382 28.9579C52.7766 55.7978 17.0366 84.9819 5.8364 126.263C-8.6062 179.494 19.0409 220.442 66.7414 243.774C145.361 282.229 314.946 288.62 323.832 168.251C327.016 125.126 310.952 71.7966 261.924 69.0836C221.969 66.8726 180.211 66.9441 140.401 70.8033C110.455 73.7061 90.6548 82.0339 86.8043 113.938C78.0272 186.662 133.14 249.904 198.726 274.011C253.016 293.966 332.013 272.762 346.188 210.67C361.442 143.852 310.105 82.061 243.008 81.1213C206.896 80.6155 168.446 86.4927 134.668 99.4645C119.033 105.469 99.075 114.091 96.6924 132.855C90.1111 184.683 142.793 222.262 185.972 235.462C208.088 242.223 256.555 253.865 275.538 232.739C292.365 214.013 274.171 171.006 259.058 156.787C224.82 124.572 166.004 120.851 122.344 126.119C92.0585 129.774 24.5579 142.47 17.1576 182.009C13.6012 201.01 27.2915 224.588 37.7936 238.758C71.1111 283.71 115.289 311.088 169.778 323.308C231.921 337.245 355.542 347.917 371.267 261.114C383.909 191.331 344.292 114.128 281.414 83.4142C240.86 63.6054 203.215 70.4022 167.056 95.7385C156.97 102.806 150.681 109.015 150.146 121.534C149.638 133.415 146.308 155.903 153.298 166.388C158.77 174.596 184.356 156.233 187.548 154.637C218.283 139.27 262.549 127.083 285.14 99.7511C319.571 58.094 207.155 24.5222 181.959 23.7989C139.196 22.5712 106.703 62.5743 107.44 104.05C107.956 133.046 119.956 161.15 134.955 185.448C143.914 199.961 157.186 219.841 176.514 219.841C216.919 219.841 250.25 168.372 241.288 131.565C225.304 65.9167 143.538 64.8139 88.2373 65.6442C64.2719 66.0041 43.9083 69.7428 30.9149 91.4393C18.1746 112.713 12.0443 138.429 9.41905 162.806C6.1753 192.926 4.98827 228.155 15.7245 257.101C32.5235 302.393 85.4414 323.351 129.08 331.763C175.879 340.785 223.634 335.363 266.51 314.28C291.31 302.086 307.857 287.823 309.358 259.537C311.248 223.957 311.262 158.707 271.956 142.17C248.872 132.458 221.707 129.141 196.863 131.565C184.038 132.816 160.951 137.276 150.719 146.469C123.389 171.021 139.445 210.345 156.451 234.745C182.936 272.746 220.15 290.164 265.364 287.339C268.784 287.125 289.439 288.11 289.439 280.03" stroke="#1A1A1C" stroke-width="3" stroke-linecap="round"/>
</svg>
