<svg width="311" height="253" viewBox="0 0 311 253" fill="none" xmlns="http://www.w3.org/2000/svg">
<path d="M2 53.8036C6.41032 48.6582 5.80114 41.4373 6.04881 35.1217C6.27376 29.3853 8.59513 23.3813 11.8192 18.6714C18.2202 9.32039 28.5174 5.71173 39.2363 3.56013C44.2219 2.55938 53.6873 0.282832 58.0776 4.2615C59.8156 5.83658 60.7716 8.63482 61.7757 10.6695C64.024 15.2252 66.2023 19.7393 67.6417 24.6331C73.4143 44.2601 76.6001 64.7188 76.6001 85.1101C76.6001 107.87 74.8966 131.381 78.6404 153.844C79.8565 161.141 80.2336 168.432 83.5181 175.236C85.7728 179.906 88.7791 184.45 92.2852 188.275C99.5594 196.21 109.028 205.411 119.766 208.073C136.504 212.221 149.275 202.083 159.872 190.634C167.986 181.868 175.158 172.755 182.411 163.281C190.61 152.571 197.98 141.053 206.64 130.731C215.118 120.626 224.202 110.803 235.109 103.282C242.729 98.0281 251.058 92.7849 260.55 92.3788C266.43 92.1273 273.402 92.1756 278.02 96.332C284.007 101.72 288.676 108.775 292.749 115.652C297.742 124.082 303.509 132.846 306.011 142.431C308.748 152.916 308.953 164.416 309.008 175.204C309.033 180.071 309.008 184.938 309.008 189.805C309.008 196.338 307.336 202.452 306.489 208.902C305.809 214.083 305.789 219.329 304.991 224.491C304.297 228.98 303.359 233.584 303.269 238.136C303.193 242.045 302.542 247.368 304.991 250.633" stroke="#1A1A1C" stroke-width="3" stroke-linecap="round"/>
</svg>
