<svg width="351" height="173" viewBox="0 0 351 173" fill="none" xmlns="http://www.w3.org/2000/svg">
<path d="M5.24974 120.557C20.6805 120.557 35.7509 120.5 51.0245 117.804C58.2718 116.525 65.3909 114.663 72.4721 112.681C73.157 112.489 73.8941 112.265 74.6698 112.015C88.9783 107.406 105.444 98.1122 105.226 83.0816V83.0816V83.0816C105.002 67.6332 93.9758 53.3887 79.6147 47.6909C79.1136 47.4921 78.6297 47.3182 78.1675 47.1732C64.4406 42.8667 50.0585 40.7138 35.6533 41.499C33.2544 41.6297 30.051 42.3102 26.924 43.131C19.6063 45.0517 12.0905 48.8426 9.14546 55.8115V55.8115C7.91359 58.7265 6.72131 63.1424 5.733 67.3983C3.81595 75.6534 2.82291 84.0905 2.4627 92.5576C2.25932 97.3382 2.14955 102.482 2.37029 106.075C2.4256 106.975 2.529 107.941 2.67334 108.96C6.08413 133.02 19.9641 158.064 43.0637 165.612V165.612C47.725 167.135 54.0526 168.386 60.4593 169.38C78.1421 172.125 96.1513 171.481 113.669 167.825C142.448 161.819 187.64 149.136 212.5 125.5C260.5 79.8634 248 -21.5 349.5 7.50002" stroke="#1A1A1C" stroke-width="3" stroke-linecap="round"/>
</svg>
