<svg width="508" height="222" viewBox="0 0 508 222" fill="none" xmlns="http://www.w3.org/2000/svg">
<path d="M497.376 91.2429C490.631 94.79 476.433 101.985 473.6 102.391C473.188 102.45 472.365 102.708 471.237 103.122C454.396 109.307 419.577 126.837 402.383 131.961L384.797 137.202C380.457 138.495 376.539 144.821 381.023 145.462V145.462C384.341 145.937 414.757 147.747 426.065 147.973C427.4 147.999 428.737 148.075 430.027 148.421C435.534 149.901 443.752 154.36 443.752 163.704C443.752 174.244 430.262 179.919 423.517 181.44C414.116 183.378 396.327 186.907 387.993 188.115C385.392 188.492 382.783 188.938 380.301 189.803C374.412 191.857 366.289 194.963 361.337 197.691C359.21 198.863 358.053 199.851 355.673 200.335V200.335C347.594 201.977 341.343 194.118 342.328 185.933C344.354 169.105 348.485 149.186 355.375 145.864C357.145 145.011 359.458 145.729 360.337 147.486C360.978 148.766 361.109 150.614 359.775 153.063C356.74 158.637 342.575 188.534 334.987 188.534C327.713 188.534 319.51 185.275 300.574 172.062C298.904 170.896 297.104 169.913 295.197 169.198C287.548 166.329 276.197 162.489 268.9 161.235C264.807 160.532 260.48 161.025 256.338 160.727C243.204 159.783 224.421 158.313 221.669 157.624C217.622 156.61 199.916 154.077 184.233 123.673C173.441 106.107 153.678 71.3794 160.963 73.0009C161.978 73.3656 164.046 74.081 164.199 74.0249M174.621 92.2563C184.233 103.573 210.438 126.713 238.363 128.74C273.269 131.274 291.987 129.754 296.034 130.767C299.707 131.687 333.378 137.197 346.759 136.694C349.033 136.608 351.226 135.865 353.1 134.573C353.523 134.282 353.936 133.976 354.318 133.667C356.191 132.145 355.708 129.687 354.229 127.781C346.021 117.201 315.042 82.5889 307.163 79.0815C299.744 75.1966 283.184 67.2242 276.304 66.4134C269.244 65.5814 230.813 50.0629 216.441 41.7297C212.515 39.4538 209.274 35.9155 205.914 32.8661C202.127 29.4288 197.744 25.4617 195.363 23.342C192.174 20.5029 190.722 15.4271 185.447 14.2065C179.5 12.8306 174.31 18.3383 174.371 24.4421C174.419 29.3285 175.6 35.8177 179.174 43.6109C187.774 62.3597 203.963 73.0009 205.48 73.0009C206.998 73.0009 213.575 76.0412 216.104 77.5614C218.333 78.9011 228.028 86.1443 234.107 91.6603C235.621 93.0344 237.263 94.5149 239.307 94.4443C240.108 94.4166 240.997 94.2311 241.904 93.7765C243.241 93.1071 246.343 89.7847 249.872 86.7083C256.71 80.747 261.19 88.7928 252.929 92.543C251.884 93.0176 250.741 93.4355 249.492 93.7765C245.614 95.2967 237.554 98.9451 236.339 101.377C234.822 104.418 226.728 112.525 226.222 114.552C225.739 116.485 215.602 127.628 188.356 109.783C185.607 107.983 183.341 105.516 181.616 102.719C176.538 94.4868 170.227 84.1325 164.199 74.0249M189.292 153.063C179.122 150.712 164.112 128.972 157.36 117.593M189.292 153.063C199.815 155.495 172.388 130.429 157.36 117.593M189.292 153.063C196.172 153.063 203.626 163.873 206.492 169.278C209.325 174.548 214.08 176.204 216.104 176.372C223.056 176.372 231.741 178.78 237.575 180.812C240.467 181.82 242.984 183.626 245.542 185.31C249.883 188.168 255.49 190.358 261.083 191.981C271.931 195.127 273.627 191.327 262.585 188.951C258.104 187.987 253.55 187.162 250.017 186.591C249.663 186.534 249.324 186.51 248.967 186.475C245.713 186.158 233.752 183.511 224.068 181.277C222.306 180.87 217.699 181.785 216.104 180.933V180.933C208.516 176.879 195.363 173.839 192.833 171.812C190.81 170.19 181.872 170.123 177.657 170.292M157.36 117.593C155.38 114.255 154.11 111.809 153.88 111.005C153.471 109.572 148.106 96.9683 142.191 82.1219M142.191 82.1219C133.468 60.2278 123.548 33.4557 126.562 30.4361C127.931 29.0647 129.841 28.8145 131.919 29.2147C139.97 30.7651 144.83 40.1294 148.763 47.3236C152.695 54.5179 158.312 64.1538 164.199 74.0249M142.191 82.1219L139.186 79.8054C135.561 77.0118 132.798 73.2839 131.057 69.052C120.995 44.5896 102.177 6.63695 87.6227 2.39022C85.3294 1.72107 82.8109 2.42053 81.1744 4.16076C78.0668 7.46517 75.7679 14.2015 81.0326 25.3689C89.6327 43.6109 87.1032 54.7588 99.7504 75.5345C106.158 84.6555 118.873 103.303 118.468 104.924C118.003 106.79 102.545 89.3467 100.08 73.5215C99.6636 70.8467 99.3205 68.1492 98.4241 65.5948C94.1513 53.4185 87.2888 36.1204 81.176 26.4549C77.2845 20.3018 69.6039 16.308 62.5224 14.6175C59.4924 13.8941 56.4755 13.8445 54.2207 15.2344C48.9595 18.4775 65.8561 45.9756 74.962 59.3194L95.6981 92.8354C96.71 94.4708 97.897 95.9826 99.2764 97.3227C107.837 105.639 123.965 119.944 133.645 123.673M133.645 123.673C140.558 130.936 155.398 145.057 159.445 143.435C163.492 141.814 143.931 129.585 133.645 123.673ZM133.645 123.673C130.84 121.851 126.612 119.333 122.512 117.333C115.531 113.928 106.461 113.405 99.2187 110.598C88.9502 106.619 75.7998 100.32 66.3619 92.2563C50.3289 78.5585 19.3509 60.0175 4.97731 72.3392C2.81857 74.1898 1.50796 77.1957 2.96866 79.6352C4.0586 81.4555 6.22302 83.4813 10.2086 85.1622C17.8981 88.4053 44.4402 110.161 56.7501 120.633C60.6404 124.651 68.1766 131.672 74.5062 135.582C78.4794 138.036 82.8978 140.031 86.9106 142.419C90.8743 144.779 95.7394 146.982 99.7504 146.982C107.845 146.982 152.239 160.664 157.36 162.691C161.456 164.312 172.598 168.434 177.657 170.292M177.657 170.292L211.045 182.453L241.904 192.588L279.846 204.749L304.634 211.336C313.74 212.856 334.582 215.998 345.105 216.404C358.258 216.91 364.834 220.457 377.481 219.951C386.924 219.572 408.261 210.927 419.703 205.793C421.236 205.105 422.818 204.555 424.455 204.178C435.964 201.526 456.322 197.148 461.964 197.148C469.553 197.148 505.471 192.588 508 192.588" stroke="white" stroke-width="3"/>
</svg>
