<svg width="574" height="435" viewBox="0 0 574 435" fill="none" xmlns="http://www.w3.org/2000/svg">
<path d="M1 416C42.6667 430.667 140.8 449.2 200 406M200 406C209.541 400.3 223.576 388.208 222.426 375.969C221.548 366.624 208.707 364.03 202.305 370.893C196.175 377.464 192.655 388.616 200 406ZM200 406C204.167 410.833 218.4 419.6 242 416C262.193 412.92 277.236 401.811 284.5 394.387M284.5 394.387C285.726 393.134 286.73 391.987 287.5 391L284.5 394.387ZM284.5 394.387C294.333 396.425 321.1 400.5 349.5 400.5C377.9 400.5 439 387.833 466 381.5C478.667 377 508.9 362 528.5 338C548.1 314 561.333 271.333 565.5 253C569.224 234.38 575.15 191.633 569.984 165.738C569.686 164.241 569.456 162.751 569.27 161.235C567.265 144.896 555.904 108.404 523.5 76C511.5 65 483.4 40.8 467 32C452.825 25.4457 423.845 12.73 412.264 9.99276C410.437 9.56082 408.596 9.23293 406.778 8.76195C397.225 6.28664 378.068 2.36137 360 2C347.5 3.16667 319.8 6.9 309 12.5C298.849 17.7636 277.89 29.3291 266.966 35.4052C265.655 36.1344 264.403 36.9592 263.222 37.8839C253.839 45.2293 236.873 59.127 232 65.5L202.654 100.053C201.553 101.349 200.566 102.731 199.707 104.198C192.356 116.746 179.384 139.842 177.5 147C175 156.5 167.5 174.5 163 197.5C159.4 215.9 160.167 241.167 161 251.5C162.5 261.833 166.8 285.2 172 296C177.2 306.8 192.833 331.5 200 342.5C205.333 349.167 219 364.6 231 373C243 381.4 271.667 390.758 284.5 394.387ZM254.5 366C266.167 370.667 296.2 380.5 323 382.5C349.8 384.5 372.167 385.667 380 386C394.333 385 425.7 382.4 436.5 380C450 377 488.5 358 497 348.5C505.167 341.333 523.1 323.8 529.5 311C537.329 295.342 546.595 286.867 557.297 244.336C557.767 242.466 558.047 240.532 558.13 238.605C558.775 223.545 559.498 196.365 558 188.5C556 178 549.5 156 542.5 140.5C535.715 125.477 533.158 114.681 517.073 98.5524C516.034 97.5108 515.055 96.4127 514.15 95.2526C507.119 86.2351 493.613 70.1179 486.5 66C477 60.5 480 58.5 449.5 39C436.5 33 406.6 20.3 391 17.5C381.525 16.8887 361.598 15.717 351.877 15.5265C350.29 15.4954 348.717 15.6214 347.153 15.8905C338.024 17.4607 321.55 20.8409 313.5 24.5C305.333 28.1667 287.7 36.3 282.5 39.5C277.3 42.7 260.667 56.1667 253 62.5C245.167 69.6667 229.1 84.6 227.5 87C225.5 90 212 105 211.5 107.5C211 110 200.5 124.5 196.5 132.5C193.3 138.9 186.167 157.167 183 165.5C181.667 171.333 178.7 184.7 177.5 191.5C176.3 198.3 177 221.667 177.5 232.5C178.121 239.328 180.62 255.026 185.804 266.521C186.557 268.191 187.265 269.876 187.8 271.629C191.337 283.215 197.389 302.519 198.5 304C199.62 305.494 209.541 323.658 215.329 334.338C216.11 335.779 216.992 337.151 218.035 338.415C225.217 347.113 240.403 362.29 254.5 366ZM265.5 355.5C271.5 359.333 288.1 367.8 306.5 371C324.9 374.2 349.833 373.667 360 373C375.655 373 405.681 372.697 415.871 371.566C417.983 371.332 420.052 370.832 422.137 370.423C431.33 368.618 447.246 364.617 458.372 358.93C460.145 358.023 461.953 357.198 463.801 356.456C474.255 352.256 493.889 341.346 507 323.5C520.075 305.703 531.392 281.887 536.607 269.421C537.555 267.156 538.165 264.772 538.463 262.335C540.785 243.305 543.87 208.482 540.5 196.5C536.9 183.7 528 157.833 524 146.5C519.143 137.142 510.278 120.98 503.977 111.983C500.638 107.216 495.955 103.182 492.045 98.8717C479.173 84.683 460.418 64.8418 457 64.5C452 64 450.5 59.5 421.5 44.5C400.102 33.4318 378.193 31.4381 367.857 31.849C366.279 31.9118 364.716 31.9397 363.138 31.8791C351.933 31.4487 329.868 32.4375 315 39.5C295 49 290 48.5 277.5 57C265 65.5 245 83 235.5 91C227.9 97.4 216.333 116 211.5 124.5C208.5 129.667 202.2 141.1 201 145.5C199.5 151 193 168.5 192.5 185C192.1 198.2 192.333 218.5 192.5 227C192.964 235.039 195.235 252.945 200.669 264.435C201.492 266.175 202.306 267.913 202.939 269.731C206.627 280.315 213.473 298.509 217.5 304C223 311.5 224.5 319 234.5 330C242.5 338.8 258.5 350.667 265.5 355.5ZM345 358C330.518 357.638 310.848 354.245 300.448 352.121C298.484 351.72 296.58 351.099 294.755 350.273C284.069 345.433 265.187 336.223 257.5 330C247 321.5 242 307.5 240.5 306.5C239.3 305.7 230 287.833 225.5 279L216.045 251.986C215.35 250.001 214.408 248.114 213.485 246.224C209.266 237.579 208.699 227.708 209 223.5C208.667 211.167 208.4 183.5 210 171.5C211.364 161.273 215.245 152.257 217.807 147.546C218.561 146.158 219.313 144.772 219.954 143.329C222.551 137.481 227.442 126.915 232 118.5C237.2 108.9 251.5 92.5 258 85.5C262.833 80.3333 275.6 68.5 288 62.5C299.06 57.1486 317.04 51.6646 327.183 48.886C329.388 48.282 331.644 47.9685 333.93 47.9225C348.144 47.636 373.297 47.5276 382.5 49C395 51 425.5 66 437 72.5C448.5 79 468.5 102.5 474 107C479.5 111.5 499.5 142.5 505 155.5C509.4 165.9 516.167 190.5 519 201.5C524.6 215.1 521.333 250.167 519 266C515.5 280 503.3 312.7 482.5 331.5C461.7 350.3 426.5 357 411.5 358C396 358.167 361 358.4 345 358ZM341.5 344C310.351 340.885 291.43 330.309 283.442 323.412C281.356 321.612 279.311 319.757 277.169 318.024C264.149 307.487 255.077 289.988 252 282L244.144 256.777C243.057 253.288 242.551 249.625 242.171 245.991C241.487 239.46 239.649 227.19 235.5 207C229.5 177.8 233 155.167 235.5 147.5C237.833 141.667 243.7 128.1 248.5 120.5C252.671 113.896 259.408 106.311 263.399 102.14C264.455 101.036 265.442 99.8795 266.39 98.6817C270.824 93.0759 279.856 83.2148 289.5 77.5C298.935 71.9089 311.601 68.7091 318.763 67.434C320.579 67.1108 322.427 67.0463 324.269 67.1384L361.5 69C369.333 69.3333 389.5 71.5 407.5 77.5C425.5 83.5 437.333 97 441 103C447.5 113.333 463 138.2 473 155C485.5 176 492 197 497 214C500.545 226.053 499.116 249.992 497.584 264.1C497.231 267.354 496.287 270.503 494.719 273.377C488.035 285.623 474.237 306.792 458 319.5C439.6 333.9 415.667 340.833 406 342.5C399.5 344.5 377.5 347.6 341.5 344ZM296.5 311.5C301 316.667 315.8 327.6 339 330C362.2 332.4 387 331 396.5 330C409 328.5 437.8 322.5 453 310.5C466.552 299.801 475.281 282.214 478.905 272.265C479.69 270.11 480.074 267.844 480.221 265.554L482.263 233.691C482.421 231.24 482.284 228.784 481.808 226.374C479.643 215.391 475.425 196.994 471.5 189.5C466.367 179.7 456.877 156.397 448.317 146.016C447.166 144.62 445.992 143.255 444.942 141.781C437.934 131.937 424.255 114.423 415 108.5C402.5 100.5 383 87.5 365.5 84.5C351.5 82.1 333.667 83.5 326.5 84.5C320.667 86.1667 305.4 92 291 102C276.6 112 266 131.833 262.5 140.5C261 144.333 257.6 154.3 256 163.5C254.4 172.7 254.333 204.333 254.5 219C254.167 224.333 255.2 238.8 262 254C267.496 266.285 272.055 276.349 274.57 281.869C275.519 283.952 276.707 285.914 278.108 287.725L296.5 311.5ZM296.5 285C300.333 294.333 316.4 313.4 350 315C383.6 316.6 410 315.667 419 315C426.667 313.667 443.9 308.2 451.5 297C461 283 464.5 281 468 255.5C470.048 240.581 467.763 228.675 465.214 221.463C463.772 217.383 462.266 213.269 461.447 209.019C459.655 199.72 455.968 186.109 450 177C440.5 162.5 436.5 152 425 135.5C415.8 122.3 395.833 110 387 105.5C381.833 103 367 97.9 349 97.5C334.144 97.1699 318.948 100.904 310.157 103.811C307.038 104.843 304.205 106.569 301.905 108.914C297.739 113.16 292.081 119.839 288.5 127C282.5 139 278 144.5 275 163.5C272.6 178.7 272 192.5 272 197.5C271.333 203.5 270.6 217.6 273 226C276 236.5 272.5 242 281.5 257.5C288.7 269.9 294.5 281 296.5 285ZM314.5 271.5C316.833 277.667 329.5 291.4 361.5 297C390.506 302.076 413.487 296.307 423.739 291.831C425.608 291.016 427.515 290.265 429.335 289.348C436.351 285.812 446.5 275.892 446.5 256C446.5 233.2 444.5 219.5 443.5 215.5C441.167 205.667 435.5 184.5 431.5 178.5C426.5 171 422.5 156 412 140.5C403.6 128.1 382.167 120.667 372.5 118.5C365.667 117.167 348.5 114.9 334.5 116.5C324.568 117.635 317.404 121.689 313.187 125.199C310.486 127.447 307.943 129.972 305.625 132.614C302.209 136.508 297.987 143.104 295.5 152.5C291.9 166.1 291 178.167 291 182.5C290.5 186.167 290.2 196.5 293 208.5C296.5 223.5 297.5 231.5 301.5 241.5C304.7 249.5 311.5 264.833 314.5 271.5ZM355.5 275.5C338.573 269.32 328.669 260.99 323.486 254.418C319.789 249.731 316.574 244.268 314.104 238.833C310.979 231.957 307.484 220.355 305.5 202.5C302.8 178.204 305.604 160.978 308.149 152.681C308.912 150.191 310.316 147.953 312.076 146.032C319.99 137.389 327.137 133.904 331.506 132.861C333.465 132.393 335.491 132.323 337.495 132.112C350.336 130.761 374.614 131.852 389 145.5C399.821 155.766 405.975 165.342 409.063 171.859C411.061 176.074 413.133 180.348 415.277 184.489C420.311 194.213 423.239 207.348 426.5 215.5C429.318 222.546 429.499 237.606 429.161 246.678C429.078 248.889 429.286 251.108 429.195 253.319C428.799 262.973 420.265 271.662 414.063 276.247C412.4 277.476 410.537 278.387 408.542 278.931C398.661 281.623 378.114 283.756 355.5 275.5ZM354.5 263.5C338.65 255.406 332.585 241.532 330.972 232.782C330.454 229.969 330.061 227.105 329.185 224.382C325.376 212.542 328.01 221.585 323 202C319.879 189.8 319.928 176.88 320.755 167.841C321.286 162.034 323.995 156.517 328.796 153.206C339.895 145.549 348.228 149.403 365 151.5C385 154 385 163.5 397.5 175.5C410 187.5 411.5 213 415.5 219C419.5 225 419 241.5 419 251.5C419 257.857 411.424 264.634 405.301 268.823C402.53 270.718 399.319 271.849 395.969 272.051C386.424 272.629 370.041 271.436 354.5 263.5ZM334.5 212.5C337.833 223.167 349.4 245.2 369 248C390.323 251.046 401.42 249.169 401.632 236.765C401.703 232.609 401.556 228.413 401.936 224.275C402.489 218.251 402.318 210.199 399.5 204C394.5 193 378 170.5 357 170C336 169.5 336 171.5 332.5 182.5C329.7 191.3 332.667 206.167 334.5 212.5ZM343.5 197.5C343.651 192.977 344.99 189.733 346.832 187.446C351.541 181.601 361.75 179.45 367.669 184.065C369.177 185.241 370.796 186.847 372.5 189C382 201 385.5 206.5 387.5 212.5C389.5 218.5 389 226 379 233.5C371 239.5 359.333 230 354.5 224.5C350.667 220.5 343.1 209.5 343.5 197.5ZM359 212.5C357.889 211.611 356.977 210.693 356.237 209.762C350.073 202.011 362.422 194.662 369.551 201.535C369.87 201.843 370.187 202.165 370.5 202.5C376.1 208.5 374.167 213.667 372.5 215.5C371.333 217.167 367 218.9 359 212.5Z" stroke="black" stroke-width="3"/>
</svg>
