<svg width="232" height="189" viewBox="0 0 232 189" fill="none" xmlns="http://www.w3.org/2000/svg">
<path d="M229.663 18.0187C222.901 21.8827 219.125 28.5871 213.418 33.6171C207.607 38.7386 202.28 42.4203 195.328 45.8005C182.573 52.0023 169.961 56.2375 155.916 58.353C144.243 60.1114 132.437 61.7681 120.612 61.7681C116.039 61.7681 111.49 61.1709 107.247 60.2629C93.3258 57.2838 83.0044 46.038 86.0928 32.1403V32.1403C88.6861 20.4705 96.0871 11.3371 106.721 6.01995C114.258 2.25189 122.605 1.16663 130.857 3.15871C141.771 5.79292 148.86 16.6731 152.686 26.6948C161.096 48.7207 141.768 67.0697 126.473 79.397C118.21 86.0569 110.552 90.9364 100.076 93.611C90.518 96.0513 80.5562 95.2723 70.7713 95.2723C60.4776 95.2723 53.0244 95.7018 43.7279 100.164C36.9454 103.42 31.7334 108.911 27.5296 115.163C18.42 128.71 9.87381 144.142 5.79336 159.927C4.15984 166.246 0.480279 180.175 3.71665 186.648" stroke="black" stroke-width="3" stroke-linecap="round"/>
</svg>
